<?xml version="1.0" encoding="UTF-8"?><svg id="Capa_2" xmlns="http://www.w3.org/2000/svg" viewBox="0 0 393.15 393.35"><defs><style>.cls-1{fill:#2c45db;}.cls-2{fill:#d2d7f7;}</style></defs><g id="Capa_1-2"><path class="cls-2" d="M358.66,196.82c1.99,88.49-74.1,161.94-160.33,162.25-92.05.33-164-73.08-164.3-160.98-.31-92.18,71.78-164.26,163.63-163.98,88.29.27,162.12,72.51,161,162.71ZM197.97,234.64c-8.26,10.17-17.69,17.53-25.43,26.57-9.95,11.63-12.28,24.47-6.79,38.53,5.8,14.88,17.4,22.52,32.98,23.84,11.81,1,21.72-3.61,30.06-11.97,36.22-36.31,72.5-72.55,108.76-108.81,4.36-4.36,4.44-7.6.11-11.93-33.05-33.07-66.08-66.17-99.21-99.15-6.78-6.75-12.91-14.35-21.88-18.57-15.62-7.35-35.14-2.47-45.81,11.48-10.7,13.98-10.52,34.17,1,47.1,7.41,8.31,15.54,15.99,23.45,23.85.77.76,2.44,1.06,2.09,2.33-.48,1.73-2.27.95-3.46.95-12.16.07-24.32.03-36.48.04-22.82.02-45.65-.25-68.46.15-21.84.38-38.48,19.86-36.17,41.57,2.06,19.41,17.79,33.88,37.43,33.97,31.98.15,63.96.05,95.95.05,3.62,0,7.24,0,11.88,0Z"/><path class="cls-1" d="M393.15,199.51c-.18,19.34-3.54,41.3-11.26,62.43-19.73,54-55.96,92.77-108.68,115.58-35.33,15.29-72.29,19.49-110.27,12.67-45.74-8.22-84.08-29.73-114.74-64.75-3.35-3.83-3.51-7.67-.58-10.06,2.92-2.38,6.44-1.52,9.87,2.47,19.01,22.09,42.02,38.6,68.98,49.63,40.55,16.58,82.01,18.85,123.7,5.81,55.44-17.33,94.68-53.27,117.31-106.85,9.79-23.19,14.29-47.6,13.76-72.8-.5-23.93-5.25-47.02-14.83-69.02-.89-2.04-1.32-4.2-2.51-6.24-1.64-2.82-.99-6.32,2.61-7.97,3.5-1.6,6.43-.24,7.94,2.97,2.62,5.55,4.97,11.26,7.09,17.03,7.79,21.29,11.44,43.34,11.62,69.11Z"/><path class="cls-1" d="M12.07,193.45c-.22,17.64,1.9,33.9,5.95,49.96,2.43,9.65,6.08,18.83,9.86,27.98.8,1.92,1.68,3.9,1.95,5.93.33,2.41-.6,4.52-3.08,5.63-3.09,1.38-5.72.46-7.43-2.13-1.54-2.33-2.52-5.04-3.6-7.65C-1.61,230.98-5.08,187.78,7.64,143.86,25.01,83.92,62.55,41.24,119.72,16.11c10.45-4.59,21.34-8.23,32.55-10.68,20.68-4.51,41.65-7.16,62.64-4.13,9.22,1.33,18.7,1.58,27.88,4.96,5.47,2.01,11.73,3.13,17.63,4.64,2.11.54,4.16,1.43,5.55,3.18,1.48,1.87,1.4,4.15.46,6.16-1.09,2.35-3.3,3.45-5.81,2.89-4.04-.9-8.03-2.05-11.98-3.26-36.47-11.12-72.9-10.18-109,1.24-21.01,6.64-40.19,17.17-57.51,30.91-29.31,23.26-49.3,52.96-61.26,88.3-2.95,8.71-4.46,17.68-6.38,26.61-1.96,9.15-1.75,18.4-2.42,26.53Z"/><path class="cls-1" d="M327.17,52c2.04.33,3.77,1.18,5.27,2.62,7.45,7.15,14.24,14.87,20.54,23.03,2.47,3.2,3.64,6.51.2,9.71-2.86,2.67-6.38,1.86-9.67-2.38-6.02-7.76-12.47-15.11-19.59-21.88-2.29-2.18-3.1-4.66-1.85-7.64.94-2.25,2.94-3,5.11-3.46Z"/><path class="cls-1" d="M301.54,43.97c-4.17-1.41-8.58-3.7-11.67-7.77-1.55-2.05-.83-4.53.78-6.47,1.68-2.01,4-2.46,6.35-1.59,3.3,1.22,6.4,3.03,8.86,5.47,1.77,1.76,2.8,3.95,1.19,7.04-1.22,2.35-2.5,3.22-5.52,3.33Z"/><path class="cls-1" d="M197.97,234.64c-4.64,0-8.26,0-11.88,0-31.98,0-63.96.09-95.95-.05-19.63-.09-35.37-14.56-37.43-33.97-2.3-21.71,14.34-41.19,36.17-41.57,22.81-.4,45.64-.13,68.46-.15,12.16,0,24.32.02,36.48-.04,1.19,0,2.99.77,3.46-.95.35-1.27-1.32-1.57-2.09-2.33-7.9-7.87-16.04-15.54-23.45-23.85-11.52-12.93-11.7-33.12-1-47.1,10.67-13.94,30.19-18.82,45.81-11.48,8.97,4.22,15.1,11.82,21.88,18.57,33.13,32.99,66.16,66.08,99.21,99.15,4.33,4.33,4.25,7.57-.11,11.93-36.26,36.26-72.54,72.51-108.76,108.81-8.35,8.37-18.25,12.98-30.06,11.97-15.58-1.32-27.17-8.97-32.98-23.84-5.48-14.06-3.16-26.9,6.79-38.53,7.73-9.04,17.17-16.4,25.43-26.57ZM150.11,221.86s0,.03,0,.05c20.32,0,40.63.03,60.95-.03,3.87-.01,7.43.25,8.46,4.87.79,3.54-1.04,5.97-3.47,8.38-11.45,11.36-23.09,22.55-34.02,34.39-9.52,10.31-8.34,25.6,1.79,34.98,9.74,9.02,25.19,8.79,34.83-.83,34.67-34.56,69.22-69.24,103.91-103.77,2.56-2.54,2.31-3.98-.11-6.33-9.42-9.18-18.66-18.54-27.96-27.84-25.2-25.19-50.37-50.41-75.62-75.56-8.89-8.86-21.86-10.19-32.04-3.52-9.81,6.43-13.62,18.96-9.37,30.33,1.95,5.21,5.86,8.81,9.61,12.57,10.11,10.14,20.26,20.24,30.39,30.36,2.14,2.13,3.5,4.53,2.24,7.61-1.23,3.01-3.76,4.04-6.82,4.1-1.17.02-2.33,0-3.5,0-39.13,0-78.27.03-117.4-.02-4.94,0-9.59.76-13.93,3.18-9.9,5.54-14.78,16.89-12.21,28.18,2.18,9.6,11.89,18.86,23.32,18.88,20.32.03,40.63,0,60.95,0Z"/><path class="cls-2" d="M150.11,221.86c-20.32,0-40.63.02-60.95,0-11.43-.02-21.13-9.28-23.32-18.88-2.57-11.29,2.31-22.64,12.21-28.18,4.33-2.42,8.99-3.19,13.93-3.18,39.13.05,78.27.02,117.4.02,1.17,0,2.33.02,3.5,0,3.06-.05,5.59-1.09,6.82-4.1,1.26-3.08-.11-5.48-2.24-7.61-10.13-10.12-20.28-20.22-30.39-30.36-3.75-3.76-7.67-7.36-9.61-12.57-4.25-11.38-.44-23.9,9.37-30.33,10.18-6.67,23.15-5.34,32.04,3.52,25.24,25.15,50.41,50.37,75.62,75.56,9.3,9.3,18.54,18.66,27.96,27.84,2.42,2.35,2.66,3.79.11,6.33-34.69,34.53-69.25,69.21-103.91,103.77-9.64,9.61-25.09,9.85-34.83.83-10.12-9.38-11.31-24.66-1.79-34.98,10.93-11.84,22.57-23.03,34.02-34.39,2.43-2.41,4.26-4.84,3.47-8.38-1.03-4.62-4.6-4.88-8.46-4.87-20.32.06-40.63.03-60.95.03,0-.02,0-.03,0-.05Z"/></g></svg>