<?xml version="1.0" encoding="UTF-8"?><svg id="Capa_2" xmlns="http://www.w3.org/2000/svg" viewBox="0 0 393.96 393.79"><defs><style>.cls-1{fill:#d2d8f7;}.cls-2{fill:#2a44dc;}</style></defs><g id="Capa_1-2"><path class="cls-1" d="M328.81,103.11c1.91-.31,2.49,1.16,3.28,2.4,13.75,21.45,23.3,44.46,26.23,69.98.92,8.03,1.97,16.06,1.66,24.15-.75,19.63-4.23,38.66-11.48,57.09-4.94,12.57-11.21,24.4-18.99,35.22-9,12.52-19.49,23.85-31.92,33.33-13.92,10.62-28.94,19.21-45.34,24.99-13.4,4.72-27.29,7.69-41.61,9.05-15.12,1.44-29.99.13-44.74-2.25-11.29-1.82-22.31-5.48-32.85-10.08-19.49-8.5-37-20.15-51.97-35.24-15.81-15.93-27.7-34.51-35.9-55.52-5.88-15.06-8.87-30.6-10.58-46.6-1.75-16.45-.55-32.69,3.11-48.58,4.61-20.03,12.84-38.74,24.32-55.91.78-1.16,1.42-2.27,3.04-2.06-.06.29-.04.62-.18.86-17.16,29.61-13.18,59.05,1.13,88.16,10.45,21.26,26.55,38.2,43.37,54.45,26.96,26.05,56.02,49.83,82.56,76.34,3.48,3.48,6.4,3.33,10.04-.13,5.56-5.28,11-10.7,16.57-15.98,24.21-22.94,50.08-44.07,73.53-67.83,14.47-14.66,27.8-30.21,36.86-48.92,10-20.64,14.05-42.15,8.89-64.91-1.78-7.86-5.58-14.86-9.03-22.02Z"/><path class="cls-2" d="M328.81,103.11c3.45,7.16,7.25,14.16,9.03,22.02,5.15,22.76,1.11,44.27-8.89,64.91-9.07,18.71-22.4,34.26-36.86,48.92-23.44,23.76-49.32,44.89-73.53,67.83-5.57,5.28-11.01,10.69-16.57,15.98-3.64,3.46-6.56,3.6-10.04.13-26.54-26.51-55.6-50.3-82.56-76.34-16.82-16.25-32.92-33.19-43.37-54.45-14.3-29.11-18.29-58.55-1.13-88.16.14-.24.12-.57.18-.86.57-.86,1.14-1.71,1.72-2.57,1.35-.86,2.31-2.02,2.68-3.62,0,0-.01,0-.01,0,1.18-.62,1.99-1.54,2.38-2.82.72-.75,1.44-1.49,2.16-2.24.51-.27,1.15-.43,1.51-.84,10.99-12.46,25.58-18.3,41.25-21.39,16.01-3.16,31.58-.5,46.24,6.64,11.33,5.51,19.59,14.51,26.62,24.73,2.46,3.57,4.73,7.26,7.07,10.86.53-.29.7-.33.76-.43,1.26-1.99,2.53-3.98,3.74-5.99,10.38-17.24,24.57-30.05,44.43-34.66,25.52-5.93,48.91-.89,69.1,16.53,1.21,1.04,2.14,2.47,3.79,2.94.1.14.24.22.42.24.1.14.21.27.35.39,0,.25.1.43.32.54.65,1.57,1.69,2.79,3.2,3.6,0,0,.02.02.02.02.27.32.54.63.82.95,0,0-.02-.02-.02-.02.27.34.54.67.81,1.01,0,0-.03-.02-.03-.02.38,1.59,1.4,2.71,2.67,3.64,0,.27.13.48.35.62-.07.53.17.82.69.91.23.33.46.66.69,1ZM66.47,144.46c-.04,11.99,2.63,23.36,7.22,34.35,8.36,20.02,22.1,36.19,37.09,51.37,26.89,27.22,56.89,51.09,84.1,77.98,1.81,1.79,2.84,1.14,4.32-.29,6.68-6.44,13.35-12.91,20.2-19.17,21.9-20.02,44.71-39.05,65.43-60.34,15-15.42,28.71-31.84,36.44-52.32,6.52-17.29,8.78-34.96,2.79-52.87-9.66-28.88-38.97-45.87-70.17-41.27-16.72,2.47-29.01,11.35-38.39,24.96-4.7,6.82-8.83,13.97-12.56,21.35-1.32,2.62-3.2,4.11-6.22,4.12-2.93,0-4.58-1.67-5.81-4.04-1.5-2.88-2.97-5.78-4.54-8.62-11.77-21.23-26.72-37.81-53.52-38.3-10.67-.2-21.24.63-30.57,5.46-23.14,11.99-35.63,31.14-35.78,57.64Z"/><path class="cls-2" d="M194.31,393.79c-32.85-.13-65.65-9.06-96.11-26.62C16.61,320.13-20.25,220.91,11.13,131.92,26.34,88.76,53.45,54.81,92.16,30.23c1.6-1.02,3.25-1.73,5.15-2.19,3.43-.84,6.44-.72,7.96,2.8,1.51,3.52-.02,6.44-3.2,8.23-4.99,2.79-9.59,6.13-14.2,9.47-27.82,20.17-47.82,46.49-61.09,78.02-12.51,29.71-16.91,60.66-12.48,92.57,9.38,67.51,45.41,115.69,106.55,145.4,16.96,8.24,34.97,12.5,53.52,15.16,14.66,2.1,29.24,1.55,43.89.11,9.07-.9,18-2.28,26.73-5.04,5.22-1.65,8.48.02,9.46,4.16.89,3.76-1.4,6.65-6.2,7.98-16.89,4.67-34.1,6.86-53.94,6.89Z"/><path class="cls-1" d="M318.51,90.23c-1.66-.47-2.58-1.89-3.79-2.94-20.19-17.42-43.58-22.45-69.1-16.53-19.86,4.61-34.05,17.41-44.43,34.66-1.21,2.02-2.49,4-3.74,5.99-.07.1-.24.14-.76.43-2.33-3.6-4.61-7.29-7.07-10.86-7.03-10.22-15.3-19.22-26.62-24.73-14.66-7.13-30.23-9.8-46.24-6.64-15.67,3.09-30.26,8.93-41.25,21.39-.36.41-1,.56-1.51.84,1.21-5.6,5.77-8.71,9.56-12.17,9.55-8.72,19.45-17.01,30.9-23.31,11.9-6.55,24.15-11.89,37.25-15.77,16.43-4.86,33.04-7.25,50.02-6.61,22.07.83,43.33,5.42,63.5,14.88,16.28,7.64,30.83,17.72,44.02,29.76,3.6,3.29,7.74,6.5,9.26,11.6Z"/><path class="cls-2" d="M198.03,12.61c-16.41.16-31.88,2.13-47.11,6.01-1.57.4-3.14.92-4.74,1.05-3.52.29-6.09-1.23-6.85-4.77-.81-3.76,1.01-6.51,4.56-7.47C168.56.78,193.62-1.81,219.08,1.32c9.28,1.14,18.36,3.43,27.49,5.52,20.18,4.62,38.57,12.93,55.75,23.95,46.93,30.11,76.07,72.79,87.55,127.28,5.3,25.15,5.47,50.55.39,75.86-3.97,19.8-10.35,38.75-20.1,56.5-.21.39-.42.78-.64,1.17-2.65,4.62-6.07,5.96-9.72,4.15-2.77-1.37-4.05-6.06-1.34-10.48,4.37-7.14,8.13-14.77,10.84-22.45,5.31-15.05,9.38-30.59,10.93-46.65,1.95-20.28.8-40.35-3.8-60.17-6.7-28.84-19.32-54.81-38.45-77.52-17.55-20.84-38.75-36.9-63.4-48.51-24.48-11.52-50.29-16.93-76.55-17.37Z"/><path class="cls-2" d="M312.47,343.18c2.28.11,4.5.58,5.51,3.05.97,2.38.75,4.7-1.11,6.57-1.24,1.25-2.68,2.29-4.11,3.34-7.75,5.67-15.9,10.72-24.4,15.19-4.44,2.33-8.11,1.48-9.96-2.05-1.84-3.52-.49-6.86,4.07-9.26,8.87-4.67,17.24-10.12,25.45-15.84,1.31-.91,2.79-1.57,4.54-.98Z"/><path class="cls-2" d="M341.72,315.61c2.45-.29,4.68.12,5.62,2.87.86,2.52.65,4.81-1.39,6.86-2.02,2.04-3.66,4.49-5.75,6.44-2.77,2.58-5.97,2.57-8.68-.03-2.73-2.62-2.86-6.06-.26-8.63,3.02-3,4.53-8.38,10.46-7.51Z"/><path class="cls-1" d="M322.8,95c-1.51-.81-2.55-2.03-3.2-3.6,2.86-.4,3.14,1.51,3.2,3.6Z"/><path class="cls-1" d="M69.47,96.91c-.37,1.59-1.32,2.75-2.68,3.62.08-1.81.34-3.48,2.68-3.62Z"/><path class="cls-1" d="M327.07,100.58c-1.27-.93-2.3-2.05-2.67-3.64,2.42.09,2.67,1.78,2.67,3.64Z"/><path class="cls-1" d="M71.84,94.09c-.39,1.28-1.21,2.21-2.38,2.82-.37-1.92.36-2.92,2.38-2.82Z"/><path class="cls-1" d="M319.28,90.86c-.14-.11-.25-.24-.35-.39.18-.04.36-.09.54-.13-.06.17-.12.34-.19.52Z"/><path class="cls-1" d="M323.63,95.97c-.27-.32-.54-.63-.82-.95.27.32.54.63.82.95Z"/><path class="cls-1" d="M324.42,96.96c-.27-.34-.54-.67-.81-1.01.27.34.54.67.81,1.01Z"/><path class="cls-1" d="M328.11,102.12c-.51-.09-.76-.38-.69-.91.23.3.46.61.69.91Z"/><path class="cls-1" d="M66.47,144.46c.16-26.5,12.64-45.65,35.78-57.64,9.33-4.84,19.91-5.66,30.57-5.46,26.8.49,41.75,17.07,53.52,38.3,1.57,2.84,3.04,5.74,4.54,8.62,1.23,2.37,2.88,4.05,5.81,4.04,3.03,0,4.9-1.49,6.22-4.12,3.72-7.39,7.85-14.53,12.56-21.35,9.38-13.61,21.67-22.49,38.39-24.96,31.2-4.6,60.52,12.39,70.17,41.27,5.99,17.91,3.72,35.59-2.79,52.87-7.72,20.48-21.43,36.9-36.44,52.32-20.72,21.29-43.53,40.32-65.43,60.34-6.85,6.26-13.51,12.73-20.2,19.17-1.48,1.43-2.51,2.08-4.32.29-27.2-26.89-57.2-50.76-84.1-77.98-15-15.18-28.74-31.35-37.09-51.37-4.58-10.98-7.26-22.35-7.22-34.35Z"/></g></svg>